<svg width="110" height="145" viewBox="0 0 110 145" fill="none" xmlns="http://www.w3.org/2000/svg">
<path d="M67.7856 21.9234C67.7856 18.6894 70.4956 16.0678 73.8396 16.0678C77.1836 16.0678 79.8946 18.6894 79.8946 21.9234C79.8946 25.1574 77.1836 27.779 73.8396 27.779C70.4956 27.779 67.7856 25.1574 67.7856 21.9234Z" fill="#7D4EE4" stroke="#7D4EE4" stroke-miterlimit="10"/>
<path d="M54.9191 1.31639C53.7904 -4.53941 39.4189 72.4724 86.4586 101.271C88.5186 102.533 68.9516 80.336 74.2196 62.2543C76.7336 53.6215 88.1356 45.856 102.084 39.9703C105.744 38.4259 81.1616 43.5678 69.2346 36.5536C56.063 28.8073 55.9032 6.42229 54.9191 1.31639Z" fill="#7D4EE4" stroke="#7D4EE4" stroke-miterlimit="10"/>
<path d="M54.9191 1.31639C53.7904 -4.53941 39.4189 72.4724 86.4586 101.271C88.5186 102.533 68.9516 80.336 74.2196 62.2543C76.7336 53.6215 88.1356 45.856 102.084 39.9703C105.744 38.4259 81.1616 43.5678 69.2346 36.5536C56.063 28.8073 55.9032 6.42229 54.9191 1.31639Z" fill="#7D4EE4" stroke="#7D4EE4" stroke-miterlimit="10"/>
<path d="M47.4297 22.5442C48.0138 43.3889 49.0492 65.7207 65.4846 86.1587C73.3926 95.9927 53.0811 77.3079 53.0811 77.3079L23.6784 97.8047C23.6784 97.8047 34.0274 63.655 34.0127 63.6638C33.998 63.6726 4.81351 41.5 4.79551 41.5396C4.77751 41.5791 41.4623 41.1247 41.4623 41.1247C41.4623 41.1247 44.2321 30.9201 46.076 20.8881C47.92 10.856 47.3728 20.5127 47.4297 22.5442Z" fill="#A782FB" stroke="#A782FB" stroke-miterlimit="10"/>
<path d="M4.555 119.402V121.154C4.555 121.719 4.5598 122.234 4.5695 122.702C4.5793 123.169 4.5841 123.47 4.5841 123.607C4.8761 123.626 5.2265 123.646 5.6353 123.665C6.0441 123.685 6.5502 123.694 7.1536 123.694C9.3533 123.694 11.0955 122.945 12.3802 121.446C13.6649 119.947 14.3073 117.679 14.3073 114.643C14.3073 113.436 14.1467 112.356 13.8255 111.402C13.5043 110.448 13.0518 109.635 12.4678 108.964C11.8838 108.292 11.183 107.776 10.3655 107.416C9.5479 107.056 8.633 106.876 7.6208 106.876C6.92 106.876 6.3507 106.891 5.9127 106.92C5.4747 106.949 5.0319 106.983 4.5841 107.022C4.5841 107.158 4.5793 107.46 4.5695 107.927C4.5598 108.394 4.555 108.92 4.555 109.504V111.256V112.716V117.913V119.402ZM0.233501 113.3C0.233501 111.684 0.214102 110.248 0.175102 108.993C0.136202 107.737 0.0778 106.477 0 105.212C0.3309 105.251 0.690999 105.285 1.0803 105.314C1.4696 105.343 1.9076 105.358 2.3942 105.358C3.0366 105.358 3.7569 105.333 4.555 105.285C5.353 105.236 6.3945 105.212 7.6792 105.212C9.3533 105.212 10.8765 105.362 12.2488 105.664C13.6211 105.966 14.8037 106.477 15.7964 107.197C16.7892 107.917 17.5581 108.886 18.1031 110.102C18.6482 111.319 18.9207 112.852 18.9207 114.701C18.9207 116.317 18.653 117.777 18.1177 119.081C17.5824 120.385 16.8525 121.5 15.9278 122.424C15.0032 123.349 13.9326 124.054 12.716 124.541C11.4994 125.028 10.2 125.271 8.818 125.271C7.358 125.271 6.1122 125.261 5.0805 125.242C4.0488 125.222 3.1534 125.213 2.3942 125.213C1.9076 125.213 1.4696 125.213 1.0803 125.213C0.690999 125.213 0.3309 125.232 0 125.271C0.0778 124.064 0.136202 122.833 0.175102 121.577C0.214102 120.322 0.233501 118.886 0.233501 117.271V113.3Z" fill="white"/>
<path d="M23.0669 113.3C23.0669 111.684 23.0474 110.248 23.0085 108.993C22.9696 107.737 22.9112 106.477 22.8333 105.212C23.1642 105.251 23.5244 105.285 23.9137 105.314C24.303 105.343 24.741 105.358 25.2276 105.358C25.7143 105.358 26.1522 105.343 26.5416 105.314C26.9309 105.285 27.291 105.251 27.6219 105.212C27.544 106.477 27.4856 107.737 27.4467 108.993C27.4078 110.248 27.3883 111.684 27.3883 113.3V117.271C27.3883 118.886 27.4078 120.322 27.4467 121.577C27.4856 122.833 27.544 124.064 27.6219 125.271C27.291 125.232 26.9309 125.213 26.5416 125.213C26.1522 125.213 25.7143 125.213 25.2276 125.213C24.741 125.213 24.303 125.213 23.9137 125.213C23.5244 125.213 23.1642 125.232 22.8333 125.271C22.9112 124.064 22.9696 122.833 23.0085 121.577C23.0474 120.322 23.0669 118.886 23.0669 117.271V113.3Z" fill="white"/>
<path d="M41.1117 110.818C41.1117 110.078 41.029 109.455 40.8635 108.949C40.698 108.443 40.4742 108.039 40.1919 107.737C39.9097 107.436 39.5788 107.217 39.1992 107.08C38.8196 106.944 38.4254 106.876 38.0166 106.876H37.3451C37.2477 106.876 37.1504 106.876 37.0531 106.876C36.9557 106.876 36.8681 106.886 36.7903 106.905C36.7708 108.307 36.7562 109.684 36.7465 111.037C36.7368 112.39 36.7319 113.747 36.7319 115.11C37.2185 115.11 37.7198 115.061 38.2356 114.964C38.7515 114.867 39.2235 114.667 39.6518 114.365C40.08 114.064 40.4304 113.631 40.7029 113.066C40.9754 112.502 41.1117 111.752 41.1117 110.818ZM32.4105 113.3C32.4105 111.684 32.391 110.248 32.3521 108.993C32.3132 107.737 32.2548 106.477 32.1769 105.212C32.5078 105.251 32.8679 105.285 33.2572 105.314C33.6466 105.343 34.0845 105.358 34.5712 105.358C35.2525 105.358 35.9581 105.333 36.6881 105.285C37.4181 105.236 38.1334 105.212 38.8342 105.212C40.2163 105.212 41.2966 105.314 42.0752 105.518C42.8539 105.723 43.467 106.019 43.9148 106.409C44.5377 106.915 44.9951 107.479 45.2871 108.102C45.5791 108.725 45.7251 109.475 45.7251 110.351C45.7251 111.46 45.5402 112.414 45.1703 113.212C44.8005 114.01 44.2797 114.657 43.6082 115.154C42.9366 115.65 42.1434 116.015 41.2285 116.249C40.3136 116.482 39.3111 116.599 38.221 116.599H36.7319C36.7319 118.059 36.7465 119.514 36.7757 120.964C36.8049 122.414 36.8681 123.85 36.9655 125.271C36.6346 125.232 36.2744 125.213 35.8851 125.213C35.4958 125.213 35.0578 125.213 34.5712 125.213C34.0845 125.213 33.6466 125.213 33.2572 125.213C32.8679 125.213 32.5078 125.232 32.1769 125.271C32.2548 124.064 32.3132 122.833 32.3521 121.577C32.391 120.322 32.4105 118.886 32.4105 117.271V113.3Z" fill="white"/>
<path d="M62.1055 115.606C61.3658 115.587 60.6261 115.563 59.8864 115.533C59.1467 115.504 58.407 115.49 57.6673 115.49C56.9276 115.49 56.1879 115.499 55.4482 115.519C54.7085 115.538 53.9688 115.567 53.2291 115.606V117.271C53.2291 118.886 53.2486 120.322 53.2875 121.577C53.3265 122.833 53.3849 124.064 53.4627 125.271C53.1318 125.232 52.7717 125.213 52.3824 125.213C51.9931 125.213 51.5551 125.213 51.0684 125.213C50.5818 125.213 50.1438 125.213 49.7545 125.213C49.3652 125.213 49.0051 125.232 48.6741 125.271C48.752 124.064 48.8104 122.833 48.8493 121.577C48.8883 120.322 48.9077 118.886 48.9077 117.271V113.3C48.9077 111.684 48.8883 110.248 48.8493 108.993C48.8104 107.737 48.752 106.477 48.6741 105.212C49.0051 105.251 49.3652 105.285 49.7545 105.314C50.1438 105.343 50.5818 105.358 51.0684 105.358C51.5551 105.358 51.9931 105.343 52.3824 105.314C52.7717 105.285 53.1318 105.251 53.4627 105.212C53.3654 106.477 53.3021 107.728 53.2729 108.964C53.2437 110.2 53.2291 111.626 53.2291 113.241C53.7353 113.261 54.3436 113.275 55.0541 113.285C55.7646 113.295 56.6454 113.3 57.6965 113.3C58.7477 113.3 59.6042 113.295 60.266 113.285C60.9279 113.275 61.541 113.261 62.1055 113.241C62.1055 111.626 62.0861 110.2 62.0471 108.964C62.0082 107.728 61.9498 106.477 61.8719 105.212C62.2029 105.251 62.563 105.285 62.9523 105.314C63.3416 105.343 63.7796 105.358 64.2666 105.358C64.7526 105.358 65.1906 105.343 65.5806 105.314C65.9696 105.285 66.3296 105.251 66.6606 105.212C66.5826 106.477 66.5246 107.737 66.4856 108.993C66.4466 110.248 66.4266 111.684 66.4266 113.3V117.271C66.4266 118.886 66.4466 120.322 66.4856 121.577C66.5246 122.833 66.5826 124.064 66.6606 125.271C66.3296 125.232 65.9696 125.213 65.5806 125.213C65.1906 125.213 64.7526 125.213 64.2666 125.213C63.7796 125.213 63.3416 125.213 62.9523 125.213C62.563 125.213 62.2029 125.232 61.8719 125.271C61.9498 124.064 62.0082 122.833 62.0471 121.577C62.0861 120.322 62.1055 118.886 62.1055 117.271V115.606Z" fill="white"/>
<path d="M75.9456 119.402V121.154C75.9456 121.719 75.9506 122.234 75.9606 122.702C75.9696 123.169 75.9746 123.47 75.9746 123.607C76.2666 123.626 76.6176 123.646 77.0256 123.665C77.4346 123.685 77.9406 123.694 78.5446 123.694C80.7436 123.694 82.4866 122.945 83.7706 121.446C85.0556 119.947 85.6976 117.679 85.6976 114.643C85.6976 113.436 85.5376 112.356 85.2166 111.402C84.8956 110.448 84.4426 109.635 83.8586 108.964C83.2746 108.292 82.5736 107.776 81.7566 107.416C80.9386 107.056 80.0236 106.876 79.0116 106.876C78.3106 106.876 77.7416 106.891 77.3036 106.92C76.8656 106.949 76.4226 106.983 75.9746 107.022C75.9746 107.158 75.9696 107.46 75.9606 107.927C75.9506 108.394 75.9456 108.92 75.9456 109.504V111.256V112.716V117.913V119.402ZM71.6246 113.3C71.6246 111.684 71.6046 110.248 71.5656 108.993C71.5266 107.737 71.4686 106.477 71.3906 105.212C71.7216 105.251 72.0816 105.285 72.4706 105.314C72.8606 105.343 73.2986 105.358 73.7846 105.358C74.4276 105.358 75.1476 105.333 75.9456 105.285C76.7436 105.236 77.7856 105.212 79.0696 105.212C80.7436 105.212 82.2676 105.362 83.6396 105.664C85.0116 105.966 86.1946 106.477 87.1876 107.197C88.1796 107.917 88.9486 108.886 89.4936 110.102C90.0386 111.319 90.3116 112.852 90.3116 114.701C90.3116 116.317 90.0436 117.777 89.5086 119.081C88.9736 120.385 88.2436 121.5 87.3186 122.424C86.3936 123.349 85.3236 124.054 84.1066 124.541C82.8906 125.028 81.5906 125.271 80.2086 125.271C78.7486 125.271 77.5026 125.261 76.4716 125.242C75.4396 125.222 74.5446 125.213 73.7846 125.213C73.2986 125.213 72.8606 125.213 72.4706 125.213C72.0816 125.213 71.7216 125.232 71.3906 125.271C71.4686 124.064 71.5266 122.833 71.5656 121.577C71.6046 120.322 71.6246 118.886 71.6246 117.271V113.3Z" fill="white"/>
<path d="M98.8666 110.701C98.3606 111.869 97.8836 113.022 97.4356 114.161C96.9886 115.3 96.5506 116.463 96.1216 117.65H101.466C101.038 116.463 100.614 115.3 100.196 114.161C99.7766 113.022 99.3336 111.869 98.8666 110.701ZM109.203 125.271C108.736 125.232 108.293 125.213 107.875 125.213C107.456 125.213 107.043 125.213 106.634 125.213C106.225 125.213 105.811 125.213 105.393 125.213C104.974 125.213 104.561 125.232 104.152 125.271C103.841 124.317 103.519 123.344 103.188 122.351C102.858 121.358 102.507 120.366 102.137 119.373C101.514 119.353 100.892 119.339 100.269 119.329C99.6456 119.319 99.0226 119.315 98.3996 119.315C97.8936 119.315 97.3876 119.319 96.8816 119.329C96.3746 119.339 95.8686 119.353 95.3626 119.373C94.9736 120.366 94.6136 121.358 94.2826 122.351C93.9516 123.344 93.6496 124.317 93.3776 125.271C93.1436 125.232 92.9146 125.213 92.6916 125.213C92.4676 125.213 92.2386 125.213 92.0046 125.213C91.7716 125.213 91.5376 125.213 91.3046 125.213C91.0706 125.213 90.8176 125.232 90.5446 125.271C90.7786 124.765 91.0896 124.064 91.4796 123.169C91.8686 122.273 92.2966 121.261 92.7646 120.132C93.2316 119.003 93.7326 117.791 94.2676 116.497C94.8036 115.202 95.3386 113.893 95.8736 112.57C96.4096 111.246 96.9346 109.942 97.4506 108.657C97.9666 107.372 98.4386 106.175 98.8666 105.066C99.0616 105.105 99.2466 105.139 99.4216 105.168C99.5966 105.197 99.7816 105.212 99.9766 105.212C100.171 105.212 100.356 105.197 100.531 105.168C100.707 105.139 100.892 105.105 101.086 105.066C101.709 106.72 102.376 108.492 103.086 110.38C103.797 112.268 104.512 114.122 105.232 115.942C105.953 117.762 106.653 119.49 107.335 121.125C108.016 122.76 108.639 124.142 109.203 125.271Z" fill="white"/>
<path d="M14.688 134.925C14.4778 136.436 14.3201 137.928 14.215 139.399C14.1099 140.871 14.0047 142.342 13.8996 143.814C13.7419 143.788 13.5843 143.775 13.4266 143.775C13.2689 143.775 13.1178 143.775 12.9733 143.775C12.8156 143.775 12.6612 143.775 12.5101 143.775C12.359 143.775 12.2046 143.788 12.047 143.814C12.4674 141.554 12.8419 139.307 13.1704 137.073C13.4989 134.84 13.8011 132.573 14.077 130.274C14.2215 130.3 14.3562 130.323 14.481 130.343C14.6059 130.363 14.7405 130.372 14.8851 130.372C15.0033 130.372 15.1282 130.363 15.2595 130.343C15.3909 130.323 15.5289 130.3 15.6734 130.274C16.0282 131.062 16.3994 131.864 16.787 132.678C17.1746 133.493 17.5622 134.304 17.9498 135.112C18.3375 135.921 18.7251 136.712 19.1127 137.487C19.5003 138.263 19.8715 138.998 20.2262 139.695C21.0146 138.223 21.7997 136.683 22.5815 135.073C23.3633 133.463 24.1089 131.864 24.8185 130.274C25.1469 130.34 25.4294 130.372 25.666 130.372C25.8893 130.372 26.1653 130.34 26.4937 130.274C26.6251 131.404 26.7664 132.619 26.9175 133.92C27.0686 135.221 27.2164 136.492 27.3609 137.734C27.5055 138.975 27.65 140.135 27.7945 141.212C27.9391 142.29 28.0705 143.157 28.1887 143.814C27.9259 143.788 27.6599 143.775 27.3905 143.775C27.1211 143.775 26.8551 143.775 26.5923 143.775C26.3295 143.775 26.0601 143.775 25.7842 143.775C25.5083 143.775 25.2324 143.788 24.9564 143.814C24.8907 142.461 24.7823 140.996 24.6312 139.419C24.4801 137.842 24.3257 136.279 24.1681 134.728H24.1286C23.3797 136.279 22.6439 137.803 21.9212 139.301C21.1986 140.799 20.4825 142.303 19.7729 143.814C19.7072 143.801 19.6448 143.791 19.5857 143.784C19.5266 143.778 19.4642 143.775 19.3985 143.775C19.3328 143.775 19.2704 143.778 19.2112 143.784C19.1521 143.791 19.0897 143.801 19.024 143.814C18.3145 142.342 17.6082 140.871 16.9053 139.399C16.2023 137.928 15.4763 136.436 14.7274 134.925H14.688Z" fill="#855CDF"/>
<path d="M30.4553 135.733C30.4553 134.643 30.4421 133.674 30.4159 132.826C30.3896 131.979 30.3502 131.128 30.2976 130.274C30.8889 130.287 31.4736 130.307 32.0517 130.333C32.6298 130.359 33.2145 130.372 33.8058 130.372C34.7781 130.372 35.642 130.363 36.3976 130.343C37.1531 130.323 37.6622 130.3 37.925 130.274C37.8725 130.484 37.8462 130.76 37.8462 131.102C37.8462 131.312 37.8528 131.476 37.8659 131.594C37.879 131.713 37.8987 131.844 37.925 131.989C37.544 131.962 37.1268 131.936 36.6735 131.91C36.2202 131.883 35.78 131.857 35.353 131.831C34.926 131.805 34.5416 131.785 34.2 131.772C33.8584 131.759 33.6153 131.752 33.4708 131.752C33.4182 132.475 33.3886 133.191 33.3821 133.9C33.3755 134.61 33.3722 135.326 33.3722 136.049C34.2263 136.035 34.9982 136.016 35.688 135.989C36.3779 135.963 37.0972 135.93 37.8462 135.891C37.8068 136.114 37.7805 136.285 37.7673 136.403C37.7542 136.522 37.7476 136.646 37.7476 136.778C37.7476 136.883 37.7575 136.991 37.7772 137.103C37.7969 137.215 37.8199 137.376 37.8462 137.586C36.3483 137.468 34.857 137.409 33.3722 137.409C33.3722 137.829 33.3689 138.249 33.3624 138.67C33.3558 139.09 33.3525 139.511 33.3525 139.931C33.3525 140.785 33.3722 141.607 33.4116 142.395C34.1606 142.395 34.9095 142.375 35.6585 142.336C36.4074 142.296 37.1629 142.231 37.925 142.139C37.8987 142.283 37.879 142.415 37.8659 142.533C37.8528 142.651 37.8462 142.815 37.8462 143.026C37.8462 143.236 37.8528 143.4 37.8659 143.518C37.879 143.637 37.8987 143.735 37.925 143.814C37.5703 143.801 37.1334 143.791 36.6144 143.784C36.0954 143.778 35.3825 143.775 34.4759 143.775C33.6744 143.775 33.024 143.775 32.5247 143.775C32.0386 143.775 31.6477 143.775 31.352 143.775C31.0564 143.775 30.833 143.778 30.6819 143.784C30.5308 143.791 30.4027 143.801 30.2976 143.814C30.3502 142.999 30.3896 142.168 30.4159 141.321C30.4421 140.473 30.4553 139.504 30.4553 138.414V135.733Z" fill="#855CDF"/>
<path d="M43.4042 139.852V141.035C43.4042 141.416 43.4074 141.764 43.414 142.08C43.4206 142.395 43.4239 142.599 43.4239 142.691C43.621 142.704 43.8575 142.717 44.1334 142.73C44.4093 142.743 44.7509 142.75 45.1583 142.75C46.643 142.75 47.819 142.244 48.6862 141.232C49.5534 140.22 49.987 138.69 49.987 136.64C49.987 135.825 49.8786 135.096 49.6618 134.452C49.445 133.808 49.1395 133.26 48.7453 132.806C48.3511 132.353 47.8781 132.005 47.3263 131.762C46.7744 131.519 46.1569 131.397 45.4736 131.397C45.0006 131.397 44.6163 131.407 44.3206 131.427C44.025 131.447 43.7261 131.47 43.4239 131.496C43.4239 131.588 43.4206 131.791 43.414 132.107C43.4074 132.422 43.4042 132.777 43.4042 133.171V134.354V135.339V138.847V139.852ZM40.4872 135.733C40.4872 134.643 40.4741 133.674 40.4478 132.826C40.4215 131.979 40.3821 131.128 40.3295 130.274C40.5529 130.3 40.796 130.323 41.0588 130.343C41.3216 130.363 41.6172 130.372 41.9457 130.372C42.3793 130.372 42.8654 130.356 43.4042 130.323C43.9429 130.29 44.6458 130.274 45.513 130.274C46.643 130.274 47.6712 130.376 48.5975 130.579C49.5238 130.783 50.322 131.128 50.9922 131.614C51.6623 132.1 52.1813 132.754 52.5492 133.575C52.9171 134.396 53.101 135.431 53.101 136.679C53.101 137.77 52.9204 138.755 52.559 139.636C52.1977 140.516 51.705 141.268 51.0808 141.892C50.4567 142.516 49.7341 142.993 48.9128 143.321C48.0916 143.65 47.2146 143.814 46.2817 143.814C45.2962 143.814 44.4553 143.807 43.7589 143.794C43.0625 143.781 42.4581 143.775 41.9457 143.775C41.6172 143.775 41.3216 143.775 41.0588 143.775C40.796 143.775 40.5529 143.788 40.3295 143.814C40.3821 142.999 40.4215 142.168 40.4478 141.321C40.4741 140.473 40.4872 139.504 40.4872 138.414V135.733Z" fill="#855CDF"/>
<path d="M55.8997 135.733C55.8997 134.643 55.8866 133.674 55.8603 132.826C55.834 131.979 55.7946 131.128 55.7421 130.274C55.9654 130.3 56.2085 130.323 56.4713 130.343C56.7341 130.363 57.0297 130.372 57.3582 130.372C57.6867 130.372 57.9823 130.363 58.2451 130.343C58.5079 130.323 58.751 130.3 58.9743 130.274C58.9218 131.128 58.8824 131.979 58.8561 132.826C58.8298 133.674 58.8167 134.643 58.8167 135.733V138.414C58.8167 139.504 58.8298 140.473 58.8561 141.321C58.8824 142.168 58.9218 142.999 58.9743 143.814C58.751 143.788 58.5079 143.775 58.2451 143.775C57.9823 143.775 57.6867 143.775 57.3582 143.775C57.0297 143.775 56.7341 143.775 56.4713 143.775C56.2085 143.775 55.9654 143.788 55.7421 143.814C55.7946 142.999 55.834 142.168 55.8603 141.321C55.8866 140.473 55.8997 139.504 55.8997 138.414V135.733Z" fill="#855CDF"/>
<path d="M73.0466 141.587C72.9416 141.863 72.8496 142.142 72.7706 142.425C72.6916 142.707 72.6396 142.986 72.6126 143.262C71.5486 143.801 70.2086 144.07 68.5926 144.07C67.4496 144.07 66.4276 143.909 65.5276 143.587C64.6276 143.265 63.8656 142.812 63.2414 142.227C62.6172 141.643 62.1409 140.95 61.8125 140.148C61.484 139.347 61.3197 138.479 61.3197 137.547C61.3197 136.18 61.5332 135.02 61.9603 134.068C62.3873 133.115 62.9589 132.34 63.6746 131.742C64.3906 131.144 65.2226 130.707 66.1686 130.432C67.1146 130.156 68.1066 130.018 69.1446 130.018C69.4856 130.018 69.8476 130.044 70.2286 130.096C70.6096 130.149 70.9776 130.218 71.3316 130.303C71.6866 130.389 72.0246 130.491 72.3466 130.609C72.6686 130.727 72.9416 130.852 73.1646 130.983C73.0336 131.312 72.9316 131.644 72.8596 131.979C72.7876 132.314 72.7376 132.652 72.7116 132.994H72.4356C71.9366 132.363 71.4236 131.913 70.8986 131.644C70.3726 131.374 69.7556 131.24 69.0456 131.24C68.5206 131.24 67.9916 131.358 67.4596 131.594C66.9266 131.831 66.4436 132.192 66.0106 132.678C65.5766 133.165 65.2256 133.785 64.9556 134.541C64.6866 135.296 64.5516 136.2 64.5516 137.251C64.5516 138.263 64.6896 139.127 64.9656 139.843C65.2416 140.559 65.5996 141.143 66.0396 141.597C66.4806 142.05 66.9796 142.382 67.5376 142.592C68.0966 142.802 68.6576 142.907 69.2226 142.907C69.5386 142.907 69.8606 142.871 70.1886 142.799C70.5176 142.727 70.8396 142.628 71.1546 142.503C71.4696 142.379 71.7686 142.224 72.0516 142.04C72.3336 141.856 72.5806 141.653 72.7906 141.429L73.0466 141.587Z" fill="#855CDF"/>
<path d="M78.7816 133.979C78.4406 134.768 78.1186 135.546 77.8166 136.315C77.5136 137.083 77.2186 137.868 76.9296 138.67H80.5366C80.2466 137.868 79.9616 137.083 79.6786 136.315C79.3966 135.546 79.0976 134.768 78.7816 133.979ZM85.7586 143.814C85.4436 143.788 85.1446 143.775 84.8626 143.775C84.5796 143.775 84.3006 143.775 84.0246 143.775C83.7486 143.775 83.4696 143.775 83.1866 143.775C82.9046 143.775 82.6256 143.788 82.3496 143.814C82.1396 143.17 81.9226 142.513 81.6986 141.843C81.4756 141.173 81.2386 140.503 80.9896 139.833C80.5686 139.82 80.1486 139.81 79.7276 139.803C79.3076 139.797 78.8876 139.793 78.4666 139.793C78.1246 139.793 77.7836 139.797 77.4416 139.803C77.1006 139.81 76.7586 139.82 76.4166 139.833C76.1546 140.503 75.9106 141.173 75.6876 141.843C75.4646 142.513 75.2606 143.17 75.0766 143.814C74.9186 143.788 74.7646 143.775 74.6136 143.775C74.4626 143.775 74.3076 143.775 74.1506 143.775C73.9926 143.775 73.8346 143.775 73.6776 143.775C73.5196 143.775 73.3486 143.788 73.1646 143.814C73.3226 143.472 73.5326 142.999 73.7956 142.395C74.0586 141.791 74.3476 141.107 74.6626 140.345C74.9786 139.583 75.3166 138.765 75.6776 137.891C76.0396 137.018 76.4006 136.134 76.7616 135.241C77.1236 134.347 77.4776 133.467 77.8266 132.6C78.1746 131.732 78.4926 130.924 78.7816 130.175C78.9136 130.202 79.0386 130.225 79.1566 130.244C79.2746 130.264 79.3996 130.274 79.5306 130.274C79.6626 130.274 79.7876 130.264 79.9056 130.244C80.0236 130.225 80.1486 130.202 80.2796 130.175C80.7006 131.292 81.1506 132.488 81.6296 133.762C82.1096 135.037 82.5926 136.288 83.0786 137.517C83.5646 138.745 84.0376 139.912 84.4976 141.015C84.9576 142.119 85.3776 143.052 85.7586 143.814Z" fill="#855CDF"/>
<path d="M87.7886 135.733C87.7886 134.643 87.7756 133.674 87.7496 132.826C87.7236 131.979 87.6836 131.128 87.6316 130.274C87.8546 130.3 88.0976 130.323 88.3606 130.343C88.6236 130.363 88.9186 130.372 89.2476 130.372C89.5756 130.372 89.8716 130.363 90.1346 130.343C90.3976 130.323 90.6406 130.3 90.8636 130.274C90.8116 131.128 90.7716 131.979 90.7456 132.826C90.7196 133.674 90.7056 134.643 90.7056 135.733V138.414C90.7056 139.163 90.7096 139.885 90.7156 140.582C90.7226 141.278 90.7326 141.883 90.7456 142.395C91.4946 142.395 92.2436 142.375 92.9926 142.336C93.7416 142.296 94.4966 142.231 95.2586 142.139C95.2326 142.283 95.2126 142.415 95.1996 142.533C95.1866 142.651 95.1796 142.815 95.1796 143.026C95.1796 143.236 95.1866 143.4 95.1996 143.518C95.2126 143.637 95.2326 143.735 95.2586 143.814C94.9036 143.801 94.4676 143.791 93.9486 143.784C93.4296 143.778 92.7166 143.775 91.8096 143.775C91.0086 143.775 90.3576 143.775 89.8586 143.775C89.3726 143.775 88.9816 143.775 88.6856 143.775C88.3906 143.775 88.1666 143.778 88.0156 143.784C87.8646 143.791 87.7366 143.801 87.6316 143.814C87.6836 142.999 87.7236 142.168 87.7496 141.321C87.7756 140.473 87.7886 139.504 87.7886 138.414V135.733Z" fill="#855CDF"/>
</svg>
